<svg width="20" height="24" viewBox="0 0 20 24" fill="none" xmlns="http://www.w3.org/2000/svg">
<path d="M11.89 8.50359C11.7615 8.11999 11.5156 7.78649 11.1873 7.5502C10.8589 7.31391 10.4645 7.18678 10.06 7.18678C9.65544 7.18678 9.26111 7.31391 8.93273 7.5502C8.60435 7.78649 8.35853 8.11999 8.22999 8.50359L5.80999 13.3536C5.5324 13.8438 5.39408 14.4005 5.40999 14.9636C5.44122 15.5449 5.68619 16.0941 6.09782 16.5058C6.50945 16.9174 7.0587 17.1624 7.63999 17.1936C8.54441 17.1285 9.3989 16.7542 10.06 16.1336C10.7211 16.7542 11.5756 17.1285 12.48 17.1936C13.0613 17.1624 13.6105 16.9174 14.0222 16.5058C14.4338 16.0941 14.6788 15.5449 14.71 14.9636C14.7259 14.4005 14.5876 13.8438 14.31 13.3536L11.89 8.50359ZM9.16999 12.8836C9.16999 12.8336 9.17999 11.6536 10.06 11.6536C10.94 11.6536 10.94 12.8336 10.94 12.8836C10.8496 13.5719 10.5413 14.2132 10.06 14.7136C9.57508 14.2146 9.26311 13.5731 9.16999 12.8836ZM12.48 16.1936C11.8408 16.1319 11.2398 15.8613 10.77 15.4236C11.4321 14.7309 11.8439 13.837 11.94 12.8836C11.9677 12.6196 11.9431 12.3528 11.8676 12.0983C11.7921 11.8438 11.6672 11.6067 11.5001 11.4006C11.3329 11.1944 11.1267 11.0232 10.8934 10.8967C10.66 10.7703 10.404 10.691 10.14 10.6636L10.06 10.6536C9.79453 10.6701 9.53495 10.7389 9.29615 10.856C9.05734 10.9731 8.84401 11.1362 8.66841 11.336C8.4928 11.5358 8.35838 11.7682 8.27285 12.0201C8.18731 12.2719 8.15236 12.5382 8.16999 12.8036L8.17999 12.8836C8.27534 13.8372 8.68724 14.7314 9.34999 15.4236C8.88016 15.8613 8.27915 16.1319 7.63999 16.1936C7.32358 16.1645 7.02732 16.0256 6.80263 15.8009C6.57795 15.5763 6.43903 15.28 6.40999 14.9636C6.39392 14.5572 6.49455 14.1546 6.69999 13.8036L9.11999 8.95359C9.44999 8.30359 9.66999 8.19359 10.06 8.19359C10.45 8.19359 10.67 8.30359 11 8.95359L13.42 13.8036C13.6254 14.1546 13.7261 14.5572 13.71 14.9636C13.6809 15.28 13.542 15.5763 13.3174 15.8009C13.0927 16.0256 12.7964 16.1645 12.48 16.1936ZM19.49 5.84359C19.4697 5.74008 19.4171 5.64565 19.3399 5.57381C19.2627 5.50196 19.1647 5.45638 19.06 5.44359C15.6818 5.10911 12.5675 3.46946 10.38 0.87359C10.3313 0.819903 10.2718 0.777004 10.2055 0.747647C10.1392 0.71829 10.0675 0.703125 9.99499 0.703125C9.92248 0.703125 9.85077 0.71829 9.78447 0.747647C9.71816 0.777004 9.65873 0.819903 9.60999 0.87359C7.42243 3.46946 4.30817 5.10911 0.929992 5.44359C0.825288 5.45638 0.727311 5.50196 0.650077 5.57381C0.572844 5.64565 0.520311 5.74008 0.499992 5.84359C-1.08001 14.0336 2.04999 19.8636 9.79999 23.1536C9.86168 23.1797 9.928 23.1932 9.99499 23.1932C10.062 23.1932 10.1283 23.1797 10.19 23.1536C17.94 19.8636 21.06 14.0436 19.49 5.84359ZM9.99999 22.1436C2.89999 19.0536 0.0899924 13.8936 1.42999 6.38359C4.72181 5.97058 7.75947 4.40036 9.99999 1.95359C12.2405 4.40036 15.2782 5.97058 18.57 6.38359C19.9 13.8936 17.09 19.0536 9.99999 22.1436Z" fill="#574EFA"/>
</svg>
